# xmcd CD database file
#
# Track frame offsets:
#	150
#	13920
#	25445
#	38612
#	51902
#	64992
#	77857
#	91222
#	104817
#	118477
#	131672
#	144540
#	158637
#	173160
#
# Disc length: 2482 seconds
#
# Revision: 0
# Processed by: cddbd v1.5.1PL0 Copyright (c) Steve Scherf et al.
# Submitted via: CDex 1.51
#
DISCID=c909b00e
DTITLE=Yank Lawson - That's a Plenty
DYEAR=1985
DGENRE=Jazz
TTITLE0=Thst's a Plenty (version 1)
TTITLE1=Yank's Blues
TTITLE2=Old Fashioned Love
TTITLE3=Squeeze Me (version 1)
TTITLE4=Wolverine Blues
TTITLE5=Double Clarinet Blues
TTITLE6=Sunday
TTITLE7=That'a a Plenty (version 2)
TTITLE8=Wang Wang Blues
TTITLE9=Squeeze Me (version 2)
TTITLE10=The Sheik of Araby
TTITLE11=Too Many Times
TTITLE12=Stumbling
TTITLE13=Jeepers Creepers
EXTD=YEAR: 1985
EXTT0=
EXTT1=
EXTT2=
EXTT3=
EXTT4=
EXTT5=
EXTT6=
EXTT7=
EXTT8=
EXTT9=
EXTT10=
EXTT11=
EXTT12=
EXTT13=
PLAYORDER=
